<svg width="50" height="50" viewBox="0 0 50 50" fill="none" xmlns="http://www.w3.org/2000/svg">
<path fill-rule="evenodd" clip-rule="evenodd" d="M18.0563 19.6188C17.3496 19.6188 16.6498 19.7579 15.9969 20.0284C15.3441 20.2988 14.7508 20.6952 14.2511 21.1949C13.7514 21.6946 13.3551 22.2878 13.0846 22.9407C12.8142 23.5936 12.675 24.2933 12.675 25C12.675 25.7067 12.8142 26.4064 13.0846 27.0593C13.3551 27.7122 13.7514 28.3054 14.2511 28.8051C14.7508 29.3048 15.3441 29.7012 15.9969 29.9716C16.6498 30.2421 17.3496 30.3813 18.0563 30.3813H23.4375V25.1083C23.4367 25.0361 23.4367 24.9639 23.4375 24.8917V19.6188H18.0563ZM23.4375 16.4938H18.0563C16.6288 16.4938 15.2598 15.9267 14.2504 14.9173C13.241 13.9079 12.674 12.5389 12.674 11.1115C12.674 9.68399 13.241 8.31498 14.2504 7.3056C15.2598 6.29623 16.6288 5.72917 18.0563 5.72917H23.4375V16.4938ZM26.5625 5.72917V16.4938H31.9438C33.3529 16.466 34.695 15.8868 35.6817 14.8804C36.6685 13.8741 37.2212 12.5209 37.2212 11.1115C37.2212 9.70205 36.6685 8.34885 35.6817 7.34249C34.695 6.33614 33.3529 5.75689 31.9438 5.72917H26.5625ZM31.9438 19.6167C30.5312 19.6165 29.1753 20.1717 28.1685 21.1625C27.1618 22.1533 26.5849 23.5002 26.5625 24.9125V25.0854C26.5798 26.1458 26.91 27.1775 27.5116 28.0509C28.1133 28.9242 28.9597 29.6003 29.9443 29.9942C30.929 30.3881 32.0082 30.4823 33.0462 30.2649C34.0842 30.0475 35.0349 29.5282 35.7787 28.7722C36.5226 28.0163 37.0265 27.0574 37.2271 26.016C37.4278 24.9746 37.3162 23.8971 36.9065 22.9189C36.4967 21.9407 35.8071 21.1054 34.9241 20.5178C34.0412 19.9303 33.0043 19.6168 31.9438 19.6167ZM18.0563 33.5063C16.9914 33.5058 15.9504 33.8212 15.0649 34.4125C14.1793 35.0038 13.489 35.8444 13.0812 36.828C12.6734 37.8117 12.5665 38.8941 12.774 39.9385C12.9815 40.9829 13.4941 41.9424 14.2468 42.6954C14.9996 43.4485 15.9589 43.9614 17.0032 44.1693C18.0475 44.3772 19.13 44.2707 20.1138 43.8633C21.0976 43.4559 21.9385 42.7659 22.5301 41.8806C23.1217 40.9953 23.4375 39.9544 23.4375 38.8896V33.5063H18.0563Z" fill="white"/>
</svg>
