<svg width="50" height="50" viewBox="0 0 50 50" fill="none" xmlns="http://www.w3.org/2000/svg">
<path d="M18.8333 44.875C20.8333 45.4792 22.8542 45.8333 25 45.8333C30.5253 45.8333 35.8244 43.6384 39.7314 39.7314C43.6384 35.8244 45.8333 30.5253 45.8333 25C45.8333 22.2641 45.2945 19.555 44.2475 17.0274C43.2005 14.4998 41.6659 12.2032 39.7314 10.2686C37.7968 8.33406 35.5002 6.79948 32.9726 5.75251C30.445 4.70554 27.7359 4.16667 25 4.16667C22.2641 4.16667 19.555 4.70554 17.0274 5.75251C14.4998 6.79948 12.2032 8.33406 10.2686 10.2686C6.3616 14.1756 4.16667 19.4747 4.16667 25C4.16667 33.8542 9.72917 41.4583 17.5833 44.4583C17.3958 42.8333 17.2083 40.1458 17.5833 38.2917L19.9792 28C19.9792 28 19.375 26.7917 19.375 24.875C19.375 22 21.1667 19.8542 23.2083 19.8542C25 19.8542 25.8333 21.1667 25.8333 22.8542C25.8333 24.6458 24.6458 27.2083 24.0417 29.6667C23.6875 31.7083 25.125 33.5 27.2083 33.5C30.9167 33.5 33.7917 29.5417 33.7917 23.9583C33.7917 18.9583 30.2083 15.5417 25.0625 15.5417C19.1875 15.5417 15.7292 19.9167 15.7292 24.5208C15.7292 26.3125 16.3125 28.125 17.2708 29.3125C17.4583 29.4375 17.4583 29.6042 17.3958 29.9167L16.7917 32.1875C16.7917 32.5417 16.5625 32.6667 16.2083 32.4167C13.5417 31.25 12 27.4583 12 24.3958C12 17.8125 16.6667 11.8333 25.6667 11.8333C32.8333 11.8333 38.4167 16.9792 38.4167 23.8125C38.4167 30.9792 33.9792 36.7292 27.625 36.7292C25.6042 36.7292 23.625 35.6458 22.9167 34.375L21.5208 39.3125C21.0417 41.1042 19.7292 43.5 18.8333 44.9375V44.875Z" fill="#F4F4F4"/>
</svg>
